<svg width="16" height="16" viewBox="0 0 16 16" fill="none" xmlns="http://www.w3.org/2000/svg">
<path d="M7.94539 0.492188C9.03754 0.492188 10.066 0.683313 11.0307 1.06557C12.0137 1.42962 12.8692 1.93929 13.5973 2.59458C14.3436 3.24987 14.926 4.03257 15.3447 4.9427C15.7816 5.83462 16 6.81755 16 7.8915C16 9.00185 15.7816 10.0212 15.3447 10.9495C14.926 11.8779 14.3436 12.6788 13.5973 13.3523C12.8692 14.0257 12.0137 14.5536 11.0307 14.9359C10.066 15.3181 9.03754 15.5093 7.94539 15.5093C6.87144 15.5093 5.8521 15.3272 4.88737 14.9632C3.92264 14.5809 3.07622 14.053 2.34812 13.3796C1.62002 12.7061 1.04664 11.9052 0.627985 10.9768C0.209327 10.0303 0 9.00185 0 7.8915C0 6.81755 0.209327 5.82552 0.627985 4.91539C1.04664 4.00527 1.62002 3.22256 2.34812 2.56727C3.07622 1.91198 3.92264 1.40231 4.88737 1.03826C5.8521 0.674212 6.87144 0.492188 7.94539 0.492188Z" fill="#124CFA"/>
<rect x="2.00586" y="7.99414" width="8.48179" height="8.48179" transform="rotate(-45 2.00586 7.99414)" fill="white"/>
</svg>
