<svg width="72" height="24" viewBox="0 0 72 24" fill="none" xmlns="http://www.w3.org/2000/svg">
<path d="M12.0947 1.38086C13.6392 1.38089 15.0937 1.65086 16.458 2.19141C17.8482 2.70628 19.0581 3.42773 20.0879 4.35449C21.1433 5.2812 21.9675 6.38776 22.5596 7.6748C23.1774 8.93624 23.4863 10.3268 23.4863 11.8457C23.4863 13.416 23.1774 14.858 22.5596 16.1709C21.9675 17.4837 21.1432 18.6159 20.0879 19.5684C19.0581 20.5209 17.8482 21.268 16.458 21.8086C15.0937 22.3492 13.6392 22.6191 12.0947 22.6191C10.5759 22.6191 9.13394 22.3616 7.76953 21.8467C6.40529 21.3061 5.20836 20.5598 4.17871 19.6074C3.14897 18.6549 2.33722 17.5219 1.74512 16.209C1.15312 14.8704 0.857434 13.4159 0.857422 11.8457C0.857422 10.327 1.15311 8.92381 1.74512 7.63672C2.33722 6.34954 3.14897 5.2422 4.17871 4.31543C5.20837 3.38881 6.40529 2.66814 7.76953 2.15332C9.13394 1.63845 10.5759 1.38086 12.0947 1.38086ZM2.64258 11.9941L12.1748 21.5264L21.708 11.9941L12.1748 2.46191L2.64258 11.9941Z" fill="white"/>
<path d="M64.6974 14.8682C64.6974 15.2496 64.7067 15.5519 64.7253 15.7752C64.7532 15.9892 64.8043 16.1566 64.8788 16.2776C64.9625 16.3892 65.0834 16.4636 65.2416 16.5008C65.409 16.5381 65.6323 16.566 65.9114 16.5846V17.1427H61.5158V16.5846C61.7856 16.566 61.9995 16.5381 62.1577 16.5008C62.3251 16.4636 62.4507 16.3892 62.5344 16.2776C62.6275 16.1659 62.6879 16.0078 62.7158 15.8031C62.7438 15.5985 62.7577 15.3194 62.7577 14.9659V13.2216C62.7577 12.6727 62.7484 12.2308 62.7298 11.8959C62.7112 11.5517 62.6879 11.3191 62.66 11.1982C62.6321 11.0773 62.5949 10.9796 62.5484 10.9052C62.5019 10.8214 62.4321 10.761 62.3391 10.7238C62.2461 10.6773 62.1298 10.6493 61.9902 10.64C61.8507 10.6214 61.6739 10.6121 61.46 10.6121V10.1377L64.1531 9.60742L64.3345 10.8354H64.3904C64.6974 10.4447 65.0602 10.1423 65.4788 9.92837C65.8974 9.7144 66.3579 9.60742 66.8603 9.60742C67.4557 9.60742 67.9347 9.69115 68.2976 9.8586C68.6697 10.0167 68.9999 10.2865 69.2883 10.6679C69.4465 10.8819 69.586 11.161 69.7069 11.5052C69.8279 11.8401 69.8883 12.3053 69.8883 12.9006V14.8682C69.8883 15.2496 69.8977 15.5519 69.9163 15.7752C69.9442 15.9892 69.9953 16.1566 70.0698 16.2776C70.1535 16.3892 70.2744 16.4636 70.4326 16.5008C70.5907 16.5381 70.8047 16.566 71.0745 16.5846V17.1427H66.7068V16.5846C66.9859 16.5753 67.2045 16.552 67.3626 16.5148C67.5301 16.4683 67.6557 16.3892 67.7394 16.2776C67.8231 16.1659 67.8789 16.0078 67.9068 15.8031C67.9347 15.5892 67.9487 15.3101 67.9487 14.9659V13.0681C67.9487 12.5936 67.9208 12.1936 67.865 11.868C67.8092 11.5424 67.7161 11.2819 67.5859 11.0866C67.465 10.8819 67.3022 10.7377 67.0975 10.654C66.8928 10.561 66.637 10.5145 66.33 10.5145C66.0323 10.5145 65.7765 10.5982 65.5625 10.7656C65.3486 10.9331 65.1625 11.1657 65.0043 11.4633C64.9206 11.6308 64.8462 11.8494 64.7811 12.1192C64.7253 12.3797 64.6974 12.6541 64.6974 12.9425V14.8682Z" fill="white"/>
<path d="M56.4757 9.60742C57.0339 9.60742 57.5595 9.7051 58.0526 9.90046C58.5549 10.0865 58.9922 10.347 59.3643 10.6819C59.7457 11.0168 60.0434 11.4168 60.2573 11.882C60.4806 12.3378 60.5923 12.8402 60.5923 13.389C60.5923 13.9565 60.4806 14.4775 60.2573 14.9519C60.0434 15.4264 59.7457 15.8357 59.3643 16.1799C58.9922 16.5241 58.5549 16.7939 58.0526 16.9892C57.5595 17.1846 57.0339 17.2823 56.4757 17.2823C55.9269 17.2823 55.4059 17.1893 54.9129 17.0032C54.4198 16.8078 53.9872 16.5381 53.6151 16.1938C53.243 15.8496 52.95 15.4403 52.736 14.9659C52.522 14.4821 52.415 13.9565 52.415 13.389C52.415 12.8402 52.522 12.3332 52.736 11.868C52.95 11.4029 53.243 11.0029 53.6151 10.6679C53.9872 10.333 54.4198 10.0726 54.9129 9.88651C55.4059 9.70045 55.9269 9.60742 56.4757 9.60742ZM56.4757 10.4168C56.1967 10.4168 55.9408 10.4912 55.7083 10.64C55.4757 10.7796 55.2757 10.9796 55.1082 11.2401C54.9501 11.5006 54.8245 11.8169 54.7315 12.189C54.6477 12.5518 54.6059 12.9565 54.6059 13.403C54.6059 13.8681 54.6477 14.2868 54.7315 14.6589C54.8245 15.031 54.9501 15.3473 55.1082 15.6078C55.2757 15.8682 55.471 16.0729 55.6943 16.2218C55.9269 16.3613 56.1873 16.4311 56.4757 16.4311C56.7641 16.4311 57.0246 16.3613 57.2572 16.2218C57.4991 16.0729 57.7037 15.8682 57.8712 15.6078C58.0386 15.338 58.1689 15.017 58.2619 14.6449C58.3549 14.2728 58.4014 13.8588 58.4014 13.403C58.4014 12.9565 58.3549 12.5518 58.2619 12.189C58.1689 11.8262 58.0386 11.5145 57.8712 11.254C57.7037 10.9842 57.4991 10.7796 57.2572 10.64C57.0246 10.4912 56.7641 10.4168 56.4757 10.4168Z" fill="white"/>
<path d="M50.4425 14.8541C50.4425 15.2262 50.4564 15.5239 50.4843 15.7472C50.5122 15.9704 50.5681 16.1425 50.6518 16.2635C50.7355 16.3844 50.8565 16.4681 51.0146 16.5147C51.1727 16.5519 51.3867 16.5751 51.6565 16.5844V17.1426H47.2609V16.5844C47.5214 16.5751 47.7307 16.5472 47.8888 16.5007C48.0563 16.4449 48.1819 16.3612 48.2656 16.2495C48.3586 16.1286 48.4191 15.9658 48.447 15.7611C48.4842 15.5472 48.5028 15.2774 48.5028 14.9518V13.2354C48.5028 12.6958 48.4935 12.254 48.4749 11.9097C48.4563 11.5562 48.4331 11.3144 48.4051 11.1841C48.3586 10.9516 48.2517 10.7981 48.0842 10.7236C47.926 10.6492 47.633 10.612 47.2051 10.612V10.1376L50.4425 9.60729V14.8541ZM48.3912 6.64898C48.3912 6.34199 48.4935 6.08616 48.6982 5.8815C48.9122 5.66753 49.168 5.56055 49.4657 5.56055C49.7727 5.56055 50.0285 5.66753 50.2332 5.8815C50.4471 6.08616 50.5541 6.34199 50.5541 6.64898C50.5541 6.94667 50.4471 7.2025 50.2332 7.41647C50.0285 7.62113 49.7727 7.72346 49.4657 7.72346C49.168 7.72346 48.9122 7.62113 48.6982 7.41647C48.4935 7.2025 48.3912 6.94667 48.3912 6.64898Z" fill="white"/>
<path d="M43.5069 14.9798C43.5069 15.3426 43.5209 15.631 43.5488 15.845C43.586 16.0497 43.6558 16.2078 43.7581 16.3194C43.8604 16.4311 44.0093 16.5055 44.2046 16.5427C44.4 16.5706 44.6605 16.5846 44.9861 16.5846V17.1427H40.3253V16.5846C40.6044 16.566 40.8277 16.5381 40.9952 16.5008C41.1626 16.4636 41.2882 16.3892 41.3719 16.2776C41.4556 16.1659 41.5068 16.0078 41.5254 15.8031C41.5533 15.5892 41.5673 15.3054 41.5673 14.9519V13.2495C41.5673 12.6727 41.5533 12.2122 41.5254 11.868C41.4975 11.5238 41.437 11.2587 41.344 11.0726C41.251 10.8866 41.1161 10.7656 40.9393 10.7098C40.7719 10.6447 40.5486 10.6121 40.2695 10.6121V10.1237L43.0604 9.60742L43.2837 11.2122H43.3395C43.5907 10.7191 43.9209 10.3284 44.3302 10.04C44.7396 9.75162 45.1721 9.60742 45.628 9.60742C45.9815 9.60742 46.2699 9.6958 46.4931 9.87255C46.7164 10.0493 46.828 10.2726 46.828 10.5424C46.828 10.8401 46.7397 11.0912 46.5629 11.2959C46.3955 11.5006 46.1629 11.6029 45.8652 11.6029C45.7257 11.6029 45.6001 11.575 45.4884 11.5192C45.3768 11.4633 45.2745 11.4029 45.1814 11.3378C45.0977 11.2633 45.0093 11.1982 44.9163 11.1424C44.8326 11.0773 44.7442 11.0447 44.6512 11.0447C44.4744 11.0447 44.307 11.161 44.1488 11.3936C43.9907 11.6261 43.8604 11.9378 43.7581 12.3285C43.6837 12.6076 43.6232 12.9239 43.5767 13.2774C43.5302 13.6216 43.5069 13.9658 43.5069 14.31V14.9798Z" fill="white"/>
<path d="M33.3296 6.25781C34.1668 6.25781 34.9483 6.40201 35.6739 6.6904C36.3995 6.97878 37.0275 7.37416 37.5577 7.87651C38.0973 8.37886 38.5206 8.9696 38.8276 9.6487C39.1346 10.3278 39.2881 11.0627 39.2881 11.8535C39.2881 12.607 39.1299 13.314 38.8136 13.9745C38.5066 14.635 38.0833 15.2118 37.5438 15.7049C37.0135 16.1886 36.3856 16.5747 35.6599 16.8631C34.9343 17.1422 34.1575 17.2817 33.3296 17.2817C32.5016 17.2817 31.7248 17.1422 30.9992 16.8631C30.2736 16.5747 29.641 16.1886 29.1014 15.7049C28.5619 15.2118 28.1386 14.635 27.8316 13.9745C27.5246 13.314 27.3711 12.607 27.3711 11.8535C27.3711 11.0627 27.5246 10.3278 27.8316 9.6487C28.1386 8.9696 28.5572 8.37886 29.0875 7.87651C29.627 7.37416 30.2596 6.97878 30.9853 6.6904C31.7109 6.40201 32.4923 6.25781 33.3296 6.25781ZM33.3296 16.3747C33.8691 16.3747 34.3575 16.2723 34.7948 16.0677C35.232 15.8537 35.6041 15.556 35.9111 15.1746C36.2181 14.7839 36.4507 14.3141 36.6088 13.7652C36.7763 13.207 36.86 12.5838 36.86 11.8953C36.86 11.1697 36.7763 10.5185 36.6088 9.94174C36.4507 9.35566 36.2181 8.85796 35.9111 8.44864C35.6041 8.03001 35.232 7.71371 34.7948 7.49974C34.3575 7.27648 33.8691 7.16484 33.3296 7.16484C32.7807 7.16484 32.2877 7.27648 31.8504 7.49974C31.4225 7.71371 31.055 8.03001 30.748 8.44864C30.441 8.85796 30.2038 9.35566 30.0364 9.94174C29.8782 10.5185 29.7991 11.1697 29.7991 11.8953C29.7991 12.5838 29.8782 13.207 30.0364 13.7652C30.2038 14.3141 30.441 14.7839 30.748 15.1746C31.055 15.556 31.4225 15.8537 31.8504 16.0677C32.2877 16.2723 32.7807 16.3747 33.3296 16.3747Z" fill="white"/>
</svg>
